<svg width="345" height="207" viewBox="0 0 345 207" fill="none" xmlns="http://www.w3.org/2000/svg">
<path d="M154.712 206.261C152.135 206.258 149.6 206.928 147.347 208.206H162.057C159.811 206.928 157.282 206.259 154.712 206.261Z" fill="#E6E6E6"/>
<path d="M183.257 204.316C178.953 204.311 174.753 205.67 171.236 208.206H195.262C191.749 205.673 187.555 204.314 183.257 204.316Z" fill="#E6E6E6"/>
<path d="M344.95 179.697C343.875 159.779 328.217 143.54 308.743 142.179C299.766 141.534 290.848 144.08 283.497 149.386C276.147 154.691 270.817 162.43 268.41 171.291C267.937 171.274 267.465 171.255 266.988 171.255C258.56 171.256 250.359 174.047 243.612 179.208C236.865 184.37 231.934 191.626 229.558 199.889C223.973 197.382 217.732 196.838 211.812 198.342C205.893 199.847 200.628 203.316 196.844 208.206H318.533C333.483 208.206 345.588 195.551 344.978 180.285C344.97 180.089 344.961 179.893 344.95 179.697Z" fill="#E6E6E6"/>
<path d="M114.068 74.1539C114.068 74.1539 98.5552 69.2155 100.937 77.3405C103.318 85.4654 116.385 81.3613 116.385 81.3613L114.068 74.1539Z" fill="#FFB8B8"/>
<path d="M173.369 43.6574C173.369 43.6574 165.419 32.5545 157.695 44.0807C149.956 55.6296 142.76 65.1105 142.76 65.1105L123.539 71.5153L112.418 72.5236L115.482 82.6273L147.814 77.8338C147.814 77.8338 183.811 55.9816 173.369 43.6574Z" fill="#2F2E41"/>
<path d="M137.883 105.145C137.883 105.145 125.806 113.785 126.611 121.602C127.416 129.419 132.65 150.812 132.65 150.812L143.52 149.167C143.52 149.167 144.727 132.71 140.702 126.539L160.025 115.43L137.883 105.145Z" fill="#FFB8B8"/>
<path d="M164.655 125.51C164.655 125.51 163.85 140.733 165.863 146.904C167.876 153.075 169.889 176.115 169.889 176.115H181.161C181.161 176.115 186.394 155.955 179.953 146.904C179.953 146.904 177.94 134.973 183.576 129.213L164.655 125.51Z" fill="#FFB8B8"/>
<path d="M162.038 83.3395C162.038 83.3395 135.871 100.208 135.871 105.556L156.805 123.247L164.051 115.019L163.246 127.361L185.79 131.887C185.79 131.887 193.842 100.619 193.439 99.3849C193.037 98.1506 191.829 80.0481 191.829 80.0481L162.038 83.3395Z" fill="#2F2E41"/>
<path d="M143.52 147.11L131.845 149.578L133.919 158.293C134.94 162.582 135.056 167.045 134.26 171.383C134.26 171.383 146.338 174.675 146.338 173.029C146.338 171.383 143.52 164.801 144.325 160.275C145.13 155.749 143.52 147.11 143.52 147.11Z" fill="#22668A"/>
<path d="M149.558 177.966C149.156 176.32 145.811 168.859 145.672 170.121C145.532 171.383 139.091 173.441 136.676 170.972C136.676 170.972 133.455 168.092 132.247 170.972C131.04 173.852 128.624 178.789 128.624 178.789C128.624 178.789 117.754 184.137 119.365 187.017C119.69 187.6 120.593 187.846 121.825 187.867C121.796 187.943 121.781 188.024 121.78 188.106V188.397C121.78 188.577 121.85 188.749 121.974 188.876C122.099 189.003 122.267 189.074 122.443 189.074H122.728C122.904 189.074 123.072 189.003 123.197 188.876C123.321 188.749 123.391 188.577 123.391 188.397V188.106C123.39 188.001 123.365 187.897 123.318 187.804C123.647 187.775 123.989 187.736 124.34 187.688C124.247 187.807 124.196 187.954 124.196 188.106V188.397C124.196 188.577 124.266 188.749 124.39 188.876C124.514 189.003 124.683 189.074 124.858 189.074H125.144C125.319 189.074 125.488 189.003 125.612 188.876C125.736 188.749 125.806 188.577 125.806 188.397V188.106C125.806 187.985 125.774 187.867 125.714 187.763C125.653 187.66 125.567 187.574 125.463 187.516C126.39 187.358 127.357 187.157 128.319 186.934C128.256 187.039 128.222 187.16 128.222 187.283V187.575C128.222 187.754 128.291 187.926 128.416 188.053C128.54 188.18 128.708 188.252 128.884 188.252H129.169C129.345 188.252 129.514 188.18 129.638 188.053C129.762 187.926 129.832 187.754 129.832 187.575V187.283C129.832 187.152 129.794 187.024 129.725 186.914C129.655 186.805 129.555 186.718 129.438 186.665C130.159 186.485 130.866 186.298 131.539 186.112C131.476 186.217 131.443 186.337 131.442 186.46V186.752C131.442 186.931 131.512 187.104 131.636 187.231C131.76 187.357 131.929 187.429 132.105 187.429H132.39C132.566 187.429 132.734 187.357 132.858 187.231C132.983 187.104 133.052 186.931 133.052 186.752V186.46C133.052 186.316 133.007 186.176 132.923 186.06C132.839 185.945 132.721 185.859 132.587 185.817C134.951 185.136 136.676 184.549 136.676 184.549C136.676 184.549 138.679 183.804 141.104 182.798V183.049C141.104 183.229 141.174 183.401 141.298 183.528C141.422 183.655 141.591 183.726 141.767 183.726H142.052C142.228 183.726 142.396 183.655 142.52 183.528C142.645 183.401 142.714 183.229 142.714 183.049V182.757C142.714 182.655 142.691 182.554 142.647 182.461C142.602 182.369 142.538 182.289 142.458 182.226C142.945 182.017 143.436 181.802 143.922 181.583V181.815C143.922 181.994 143.992 182.166 144.116 182.293C144.24 182.42 144.409 182.492 144.585 182.492H144.87C145.046 182.492 145.214 182.42 145.338 182.293C145.463 182.166 145.532 181.994 145.532 181.815V181.523C145.532 181.414 145.507 181.307 145.457 181.21C145.408 181.114 145.336 181.031 145.249 180.969C145.774 180.718 146.28 180.468 146.747 180.223C146.745 180.245 146.74 180.266 146.74 180.289V180.58C146.74 180.76 146.81 180.932 146.934 181.059C147.058 181.186 147.227 181.258 147.403 181.258H147.688C147.864 181.258 148.032 181.186 148.156 181.059C148.281 180.932 148.351 180.76 148.351 180.58V180.289C148.35 180.133 148.298 179.982 148.201 179.861C148.104 179.74 147.97 179.657 147.82 179.625C148.946 178.957 149.656 178.365 149.558 177.966Z" fill="#2F2E41"/>
<path d="M181.966 174.263L169.212 173.441C169.212 173.441 169.985 187.017 168.439 191.543C166.893 196.069 167.666 197.714 167.666 197.714L178.874 198.537L181.966 174.263Z" fill="#22668A"/>
<path d="M182.123 204.27C182.065 202.575 180.316 194.565 179.922 195.769C179.529 196.974 172.809 197.614 170.95 194.685C170.95 194.685 168.388 191.182 166.619 193.741C164.851 196.3 161.481 200.614 161.481 200.614C161.481 200.614 149.759 203.529 150.746 206.689C150.946 207.328 151.778 207.76 152.979 208.044C152.935 208.112 152.904 208.188 152.887 208.268L152.827 208.553C152.791 208.729 152.824 208.912 152.919 209.063C153.015 209.213 153.165 209.319 153.337 209.356L153.616 209.417C153.788 209.455 153.967 209.421 154.115 209.323C154.262 209.225 154.365 209.072 154.402 208.896L154.462 208.611C154.482 208.508 154.479 208.402 154.452 208.3C154.78 208.342 155.122 208.376 155.475 208.405C155.36 208.501 155.28 208.634 155.249 208.783L155.189 209.068C155.153 209.243 155.186 209.427 155.282 209.577C155.377 209.728 155.527 209.834 155.699 209.871L155.978 209.932C156.15 209.969 156.33 209.935 156.477 209.838C156.624 209.74 156.728 209.587 156.764 209.411L156.824 209.126C156.848 209.008 156.841 208.885 156.803 208.771C156.766 208.657 156.698 208.555 156.609 208.476C157.548 208.519 158.534 208.529 159.52 208.515C159.437 208.605 159.38 208.715 159.354 208.836L159.295 209.121C159.258 209.296 159.291 209.48 159.387 209.63C159.482 209.781 159.633 209.887 159.804 209.924L160.083 209.985C160.255 210.022 160.435 209.989 160.582 209.891C160.73 209.793 160.833 209.64 160.87 209.464L160.929 209.179C160.956 209.051 160.945 208.918 160.899 208.795C160.853 208.673 160.774 208.567 160.67 208.491C161.412 208.469 162.142 208.436 162.838 208.398C162.755 208.487 162.697 208.597 162.672 208.717L162.612 209.002C162.576 209.178 162.609 209.361 162.704 209.512C162.8 209.663 162.95 209.768 163.122 209.806L163.401 209.866C163.573 209.904 163.752 209.87 163.9 209.772C164.047 209.675 164.151 209.521 164.187 209.345L164.247 209.06C164.276 208.919 164.26 208.773 164.202 208.642C164.143 208.511 164.045 208.402 163.922 208.332C166.373 208.17 168.18 207.963 168.18 207.963C168.18 207.963 170.291 207.661 172.869 207.194L172.817 207.44C172.781 207.615 172.814 207.799 172.909 207.949C173.005 208.1 173.155 208.206 173.327 208.243L173.606 208.304C173.778 208.341 173.957 208.307 174.105 208.21C174.252 208.112 174.356 207.959 174.392 207.783L174.452 207.498C174.472 207.397 174.47 207.293 174.446 207.194C174.421 207.094 174.374 207.002 174.31 206.924C174.828 206.823 175.353 206.717 175.873 206.607L175.825 206.833C175.789 207.009 175.822 207.192 175.917 207.343C176.013 207.493 176.163 207.599 176.335 207.636L176.614 207.697C176.786 207.735 176.965 207.701 177.113 207.603C177.26 207.505 177.364 207.352 177.4 207.176L177.46 206.891C177.482 206.785 177.479 206.674 177.45 206.569C177.421 206.464 177.368 206.368 177.295 206.289C177.86 206.156 178.406 206.019 178.912 205.878C178.906 205.899 178.897 205.919 178.893 205.941L178.833 206.226C178.797 206.402 178.83 206.585 178.925 206.736C179.021 206.887 179.171 206.992 179.343 207.03L179.622 207.091C179.794 207.128 179.973 207.094 180.121 206.996C180.268 206.899 180.372 206.745 180.408 206.57L180.468 206.284C180.499 206.132 180.479 205.973 180.409 205.834C180.339 205.695 180.224 205.585 180.084 205.523C181.322 205.109 182.137 204.681 182.123 204.27Z" fill="#2F2E41"/>
<path d="M162.038 29.8548C168.486 29.8548 173.713 24.513 173.713 17.9236C173.713 11.3342 168.486 5.99245 162.038 5.99245C155.59 5.99245 150.363 11.3342 150.363 17.9236C150.363 24.513 155.59 29.8548 162.038 29.8548Z" fill="#FFB8B8"/>
<path d="M172.505 16.6894C172.505 16.6894 178.947 24.9178 182.167 24.5064L168.077 35.6147C168.077 35.6147 166.467 28.6206 164.454 27.7977C162.441 26.9749 172.505 16.6894 172.505 16.6894Z" fill="#FFB8B8"/>
<path d="M197.666 77.7853C197.666 77.7853 197.665 32.3866 190.213 28.4758C182.766 24.5673 177.839 22.3366 177.839 22.3366C177.73 23.8262 177.315 25.2758 176.623 26.5916C175.931 27.9074 174.977 29.0602 173.821 29.9754C171.352 31.9238 168.892 33.5394 167.517 33.5445L167.473 33.3519L167.305 32.8628L163.246 39.3175C163.246 39.3175 159.623 40.1403 158.415 42.6089C157.762 43.9443 160.843 57.3883 159.019 69.5569C157.471 79.8809 150.951 89.2006 150.766 90.3336C150.454 92.249 158.379 87.2307 161.948 84.8847C162.001 84.9449 162.038 84.9851 162.038 84.9851C162.038 84.9851 160.025 85.808 164.051 84.5737C166.332 83.8744 169.517 83.8356 171.85 83.9332C171.847 84.648 171.864 85.2159 171.901 85.6023C172.304 89.7165 192.433 95.4764 195.251 94.2421C198.069 93.0078 197.666 77.7853 197.666 77.7853Z" fill="#2F2E41"/>
<path d="M183.576 93.4193C183.576 93.4193 171.499 104.528 179.55 106.585C187.602 108.642 190.823 95.065 190.823 95.065L183.576 93.4193Z" fill="#FFB8B8"/>
<path d="M169.486 122.219C169.486 122.219 175.122 116.87 178.343 119.75C181.563 122.63 183.576 124.687 183.576 124.687C183.576 124.687 174.317 118.927 169.486 122.219Z" fill="#22668A"/>
<path d="M170.95 186.214C170.95 186.214 174.127 183.2 175.942 184.823C177.757 186.446 178.892 187.606 178.892 187.606C178.892 187.606 173.673 184.359 170.95 186.214Z" fill="#2F2E41"/>
<path d="M135.361 158.174C135.361 158.174 137.541 154.345 139.74 155.358C141.939 156.372 143.355 157.143 143.355 157.143C143.355 157.143 137.437 155.59 135.361 158.174Z" fill="#2F2E41"/>
<path d="M194.624 34.1208C190.634 25.9228 178.491 30.394 180.464 39.3255C180.494 39.4587 180.525 39.5931 180.557 39.7289C182.636 48.1836 186.035 56.2409 190.621 63.5913L186.193 83.7509L181.362 94.0364L191.427 96.5049L203.906 65.6484C203.906 65.6484 200.464 46.117 194.624 34.1208Z" fill="#2F2E41"/>
<path opacity="0.2" d="M188.81 64.2083L181.161 93.8306L187.602 79.8423L188.81 64.2083Z" fill="black"/>
<path d="M169.37 4.01601C169.37 4.01601 162.917 -2.92732 156.421 1.44533C149.925 5.81797 146.844 10.0656 147.481 13.0231C148.118 15.9806 150.003 20.0944 150.003 20.0944C150.003 20.0944 148.831 13.9673 154.21 13.5138C159.589 13.0604 167.02 9.42278 167.02 9.42278L172.046 20.3929C172.046 20.3929 172.757 17.8507 174.727 18.5799C176.697 19.309 175.17 4.82928 169.37 4.01601Z" fill="#2F2E41"/>
<path d="M128.02 160.892C128.02 161.934 127.935 162.975 127.767 164.003V164.007C127.304 166.772 126.234 169.393 124.635 171.673C123.036 173.953 120.952 175.832 118.539 177.169C116.126 178.505 113.447 179.264 110.705 179.388C107.963 179.512 105.229 178.998 102.71 177.884H102.706C101.961 177.555 101.238 177.174 100.544 176.744C98.3928 175.417 96.5347 173.647 95.0877 171.547C93.6407 169.447 92.6364 167.063 92.1384 164.546C91.9049 163.342 91.7876 162.119 91.7881 160.892C91.7881 160.333 91.8123 159.777 91.8606 159.23V159.226C92.2783 154.502 94.4546 150.121 97.9404 146.989C101.426 143.857 105.956 142.211 110.594 142.392C115.232 142.573 119.626 144.567 122.867 147.962C126.109 151.357 127.952 155.894 128.016 160.637V160.641C128.02 160.728 128.02 160.806 128.02 160.892Z" fill="#22668A"/>
<path d="M114.364 154.708H106.25L102.193 147.529L104.945 142.655L105.105 142.611C108.589 141.659 112.268 141.764 115.694 142.913L115.84 142.962L118.421 147.529L114.364 154.708ZM106.715 153.886H113.899L117.491 147.529L115.297 143.646C112.114 142.615 108.711 142.516 105.475 143.362L103.123 147.529L106.715 153.886Z" fill="white"/>
<path d="M113.961 169.52H105.847L101.79 162.339L105.847 155.158H113.961L118.018 162.339L113.961 169.52ZM106.312 168.697H113.496L117.088 162.339L113.496 155.981H106.312L102.72 162.339L106.312 168.697Z" fill="white"/>
<path d="M109.904 179.818C107.374 179.822 104.87 179.293 102.55 178.261L102.136 178.077L106.25 170.791H114.364L118.304 177.766L117.913 177.959C115.415 179.189 112.677 179.824 109.904 179.818ZM103.287 177.685C105.501 178.595 107.871 179.039 110.257 178.991C112.642 178.943 114.993 178.403 117.17 177.404L113.899 171.614H106.715L103.287 177.685Z" fill="white"/>
<path d="M127.649 162.114H119.535L115.478 154.935L119.535 147.751H123.229L123.349 147.879C126.552 151.324 128.364 155.88 128.419 160.632V160.751L127.649 162.114ZM120 161.291H127.184L127.612 160.534C127.534 156.087 125.85 151.827 122.882 148.574H120L116.408 154.935L120 161.291Z" fill="white"/>
<path d="M119.423 177.136L115.478 170.157L119.535 162.974H127.648L128.169 163.891L128.164 164.075C127.724 166.696 126.75 169.192 125.305 171.402C123.86 173.613 121.977 175.488 119.777 176.907L119.423 177.136ZM116.408 170.157L119.699 175.978C121.693 174.624 123.398 172.872 124.712 170.828C126.026 168.783 126.922 166.488 127.346 164.08L127.184 163.797H120L116.408 170.157Z" fill="white"/>
<path d="M100.688 177.313L100.336 177.096C98.1376 175.738 96.2388 173.929 94.7598 171.783C93.2808 169.636 92.2538 167.199 91.7437 164.626L91.7138 164.474L92.5622 162.974H100.676L104.733 170.157L100.688 177.313ZM92.5636 164.616C93.0525 166.978 93.9978 169.217 95.344 171.201C96.6902 173.185 98.4103 174.875 100.403 176.171L103.803 170.157L100.211 163.797H93.0269L92.5636 164.616Z" fill="white"/>
<path d="M100.676 161.291H92.5624L91.4581 159.341V159.23C91.8556 154.568 93.9344 150.222 97.291 147.039L97.4069 146.928H100.676L104.733 154.112L100.676 161.291ZM93.0267 160.468H100.211L103.803 154.112L100.211 147.751H97.7246C94.6187 150.747 92.6817 154.792 92.2731 159.137L93.0267 160.468Z" fill="white"/>
</svg>
