<svg width="173" height="104" viewBox="0 0 173 104" fill="none" xmlns="http://www.w3.org/2000/svg">
<path d="M102.666 7.34503C100.352 5.01268 97.5979 3.16254 94.564 1.90176C91.53 0.640971 88.2761 -0.00541198 84.9906 3.41299e-05C81.7044 -0.00510734 78.4499 0.641395 75.4151 1.90214C72.3804 3.16289 69.6258 5.01286 67.3106 7.34503C57.5631 17.09 57.5631 32.9525 67.3106 42.7C69.6258 45.0328 72.3808 46.8832 75.416 48.144C78.4513 49.4048 81.7065 50.0509 84.9931 50.045C88.2784 50.0508 91.5323 49.4048 94.5662 48.1445C97.6001 46.8841 100.354 45.0344 102.668 42.7025C112.416 32.9575 112.416 17.095 102.666 7.34503ZM85.4406 5.02253H84.5431C84.6956 5.02003 84.8406 5.00003 84.9931 5.00003C85.1456 5.00003 85.2881 5.02003 85.4406 5.02253ZM100.596 37.5225H94.9881L91.8431 43.8125C89.6492 44.6231 87.3295 45.0403 84.9906 45.045C82.6474 45.0407 80.3234 44.6227 78.1256 43.81L74.9881 37.5475H69.4006C67.3392 34.9847 65.9452 31.9509 65.3431 28.7175L69.9881 22.5225L66.9481 16.44C67.9181 14.3765 69.2366 12.4956 70.8456 10.88C73.0976 8.62018 75.8579 6.93231 78.8956 5.95753L84.9881 10.0225L91.0831 5.96003C94.12 6.9355 96.8799 8.62231 99.1331 10.88C100.74 12.4937 102.058 14.372 103.028 16.4325L99.9881 22.5225L104.633 28.7175C104.034 31.9405 102.647 34.9653 100.596 37.5225Z" fill="#22668A"/>
<path d="M76.2381 22.5225L79.9881 32.5225H89.9881L93.7381 22.5225L84.9881 16.2725L76.2381 22.5225Z" fill="#22668A"/>
<path d="M12.132 88.764C12.132 90.42 11.952 91.812 11.592 92.94C11.232 94.068 10.572 94.92 9.612 95.496C8.652 96.072 7.272 96.36 5.472 96.36C4.644 96.36 3.792 96.288 2.916 96.144C2.04 96.012 1.398 95.892 0.99 95.784L1.098 90.978C1.446 91.05 1.842 91.146 2.286 91.266C2.742 91.386 3.246 91.446 3.798 91.446C4.998 91.446 5.808 91.128 6.228 90.492C6.66 89.844 6.876 88.8 6.876 87.36V69.972H12.132V88.764ZM21.0544 87.9C21.0424 89.328 21.3844 90.462 22.0804 91.302C22.7764 92.142 23.7544 92.562 25.0144 92.562C25.9144 92.562 26.7004 92.37 27.3724 91.986C28.0564 91.602 28.5304 90.972 28.7944 90.096H33.5284C33.3244 91.416 32.7964 92.544 31.9444 93.48C31.1044 94.416 30.0844 95.13 28.8844 95.622C27.6844 96.114 26.4364 96.36 25.1404 96.36C23.2924 96.36 21.6724 95.976 20.2804 95.208C18.8884 94.428 17.8024 93.33 17.0224 91.914C16.2424 90.498 15.8524 88.83 15.8524 86.91C15.8524 85.05 16.2064 83.376 16.9144 81.888C17.6224 80.388 18.6484 79.206 19.9924 78.342C21.3484 77.466 22.9744 77.028 24.8704 77.028C26.7664 77.028 28.3564 77.43 29.6404 78.234C30.9364 79.026 31.9084 80.136 32.5564 81.564C33.2164 82.98 33.5464 84.618 33.5464 86.478V87.9H21.0544ZM21.0364 84.768H28.6324C28.6324 83.64 28.3204 82.68 27.6964 81.888C27.0724 81.096 26.1304 80.7 24.8704 80.7C24.0544 80.7 23.3584 80.898 22.7824 81.294C22.2184 81.69 21.7864 82.2 21.4864 82.824C21.1864 83.436 21.0364 84.084 21.0364 84.768ZM37.1953 96V77.388H42.2533V81.798C42.6973 80.37 43.4233 79.218 44.4313 78.342C45.4393 77.466 46.6813 77.028 48.1573 77.028C48.5533 77.028 48.8233 77.064 48.9673 77.136V82.14C48.8593 82.104 48.7273 82.08 48.5713 82.068C48.4273 82.044 48.2953 82.026 48.1753 82.014C46.0993 81.834 44.6233 82.11 43.7473 82.842C42.8833 83.574 42.4513 84.564 42.4513 85.812V96H37.1953ZM59.112 96.36C57.804 96.36 56.556 96.15 55.368 95.73C54.18 95.298 53.166 94.626 52.326 93.714C51.486 92.802 50.958 91.608 50.742 90.132H55.296C55.524 91.128 56.028 91.818 56.808 92.202C57.6 92.574 58.356 92.76 59.076 92.76C60.084 92.76 60.894 92.604 61.506 92.292C62.13 91.968 62.442 91.476 62.442 90.816C62.442 90.312 62.256 89.91 61.884 89.61C61.524 89.31 60.924 89.082 60.084 88.926L56.808 88.242C55.164 87.894 53.838 87.306 52.83 86.478C51.834 85.638 51.33 84.45 51.318 82.914C51.306 81.234 51.966 79.836 53.298 78.72C54.642 77.592 56.586 77.028 59.13 77.028C61.422 77.028 63.252 77.538 64.62 78.558C66 79.566 66.702 80.982 66.726 82.806H62.334C62.202 82.086 61.842 81.534 61.254 81.15C60.678 80.754 59.952 80.556 59.076 80.556C58.164 80.556 57.414 80.718 56.826 81.042C56.238 81.366 55.944 81.858 55.944 82.518C55.944 83.01 56.184 83.4 56.664 83.688C57.144 83.964 57.888 84.204 58.896 84.408L61.92 85.092C63.3 85.428 64.35 85.92 65.07 86.568C65.802 87.216 66.294 87.9 66.546 88.62C66.81 89.328 66.942 89.964 66.942 90.528C66.942 92.388 66.216 93.828 64.764 94.848C63.312 95.856 61.428 96.36 59.112 96.36ZM75.9749 69.99V74.724H70.8629V69.99H75.9749ZM75.9209 77.388V96H70.8989V77.388H75.9209ZM81.8716 96V69.972H90.6736C92.5336 69.972 94.1896 70.284 95.6416 70.908C97.0936 71.532 98.2336 72.456 99.0616 73.68C99.9016 74.904 100.322 76.41 100.322 78.198C100.322 79.926 99.9316 81.402 99.1516 82.626C98.3836 83.838 97.3096 84.768 95.9296 85.416C94.5496 86.052 92.9476 86.37 91.1236 86.37H85.2916V96H81.8716ZM85.2736 83.562H91.0516C92.8276 83.562 94.2736 83.064 95.3896 82.068C96.5176 81.072 97.0816 79.716 97.0816 78C97.0816 76.272 96.5056 74.964 95.3536 74.076C94.2016 73.188 92.7136 72.744 90.8896 72.744H85.2736V83.562ZM105.923 87.468C105.923 88.644 106.115 89.712 106.499 90.672C106.895 91.62 107.489 92.376 108.281 92.94C109.085 93.504 110.087 93.786 111.287 93.786C112.475 93.786 113.495 93.51 114.347 92.958C115.211 92.406 115.763 91.608 116.003 90.564H119.153C118.925 91.824 118.421 92.886 117.641 93.75C116.861 94.614 115.919 95.268 114.815 95.712C113.711 96.144 112.559 96.36 111.359 96.36C109.619 96.36 108.089 95.982 106.769 95.226C105.449 94.47 104.417 93.384 103.673 91.968C102.929 90.552 102.557 88.854 102.557 86.874C102.557 84.918 102.893 83.202 103.565 81.726C104.237 80.25 105.209 79.098 106.481 78.27C107.765 77.442 109.307 77.028 111.107 77.028C113.735 77.028 115.751 77.862 117.155 79.53C118.559 81.186 119.261 83.424 119.261 86.244V87.468H105.923ZM105.941 85.218H116.057C116.057 83.622 115.649 82.278 114.833 81.186C114.017 80.094 112.769 79.548 111.089 79.548C109.925 79.548 108.959 79.83 108.191 80.394C107.423 80.946 106.853 81.66 106.481 82.536C106.109 83.4 105.929 84.294 105.941 85.218ZM130.546 96.36C128.122 96.36 126.202 95.532 124.786 93.876C123.382 92.22 122.68 89.802 122.68 86.622C122.68 83.718 123.316 81.396 124.588 79.656C125.872 77.904 127.774 77.028 130.294 77.028C131.47 77.028 132.472 77.22 133.3 77.604C134.14 77.988 134.812 78.438 135.316 78.954C135.832 79.47 136.192 79.932 136.396 80.34V69.252H139.744V96H137.206L136.846 92.184C136.69 92.664 136.396 93.234 135.964 93.894C135.532 94.554 134.884 95.13 134.02 95.622C133.156 96.114 131.998 96.36 130.546 96.36ZM131.14 93.804C133.024 93.804 134.368 93.234 135.172 92.094C135.988 90.942 136.396 89.064 136.396 86.46C136.372 84.288 135.964 82.608 135.172 81.42C134.38 80.22 133.06 79.62 131.212 79.62C129.688 79.62 128.44 80.166 127.468 81.258C126.508 82.338 126.028 84.072 126.028 86.46C126.028 88.788 126.46 90.594 127.324 91.878C128.2 93.162 129.472 93.804 131.14 93.804ZM149.16 69.99V73.446H145.758V69.99H149.16ZM149.088 77.388V96H145.866V77.388H149.088ZM160.093 96.36C158.281 96.36 156.805 95.886 155.665 94.938C154.525 93.99 153.955 92.664 153.955 90.96C153.955 88.896 154.675 87.36 156.115 86.352C157.555 85.344 159.865 84.804 163.045 84.732L166.375 84.642V83.184C166.375 82.044 166.027 81.144 165.331 80.484C164.647 79.812 163.591 79.476 162.163 79.476C161.095 79.488 160.153 79.746 159.337 80.25C158.521 80.742 157.999 81.54 157.771 82.644H154.837C154.933 80.832 155.641 79.446 156.961 78.486C158.281 77.514 160.069 77.028 162.325 77.028C164.749 77.028 166.561 77.538 167.761 78.558C168.973 79.578 169.579 81.06 169.579 83.004V96H166.735L166.501 92.508C165.769 93.96 164.851 94.968 163.747 95.532C162.643 96.084 161.425 96.36 160.093 96.36ZM161.101 93.966C161.929 93.966 162.745 93.768 163.549 93.372C164.365 92.976 165.037 92.472 165.565 91.86C166.093 91.236 166.363 90.576 166.375 89.88V86.694L163.603 86.748C161.467 86.784 159.865 87.102 158.797 87.702C157.729 88.29 157.195 89.268 157.195 90.636C157.195 91.692 157.555 92.514 158.275 93.102C159.007 93.678 159.949 93.966 161.101 93.966Z" fill="#22668A"/>
</svg>
