<svg width="25" height="25" viewBox="0 0 25 25" fill="none" xmlns="http://www.w3.org/2000/svg">
<path d="M1.89209 12.3291L11.9482 2.28025C12.0206 2.2077 12.1067 2.15015 12.2013 2.11088C12.296 2.07161 12.3975 2.05139 12.5 2.05139C12.6025 2.05139 12.704 2.07161 12.7987 2.11088C12.8933 2.15015 12.9794 2.2077 13.0518 2.28025L23.1079 12.3291C23.4009 12.622 23.5669 13.02 23.5669 13.435C23.5669 14.2969 22.8662 14.9975 22.0044 14.9975H20.9448V22.1679C20.9448 22.6001 20.5957 22.9492 20.1636 22.9492H14.0625V17.4804H11.3281V22.9492H4.83643C4.4043 22.9492 4.05518 22.6001 4.05518 22.1679V14.9975H2.99561C2.58057 14.9975 2.18262 14.834 1.88965 14.5386C1.28174 13.9282 1.28174 12.9394 1.89209 12.3291V12.3291Z" fill="#6AB1D7"/>
</svg>
