<svg width="26" height="26" viewBox="0 0 26 26" fill="none" xmlns="http://www.w3.org/2000/svg">
<path d="M20.8764 22.3174L14.5698 15.9435C13.2926 16.9207 11.7346 17.4446 10.0989 17.4359C8.14093 17.4256 6.30907 16.6517 4.93215 15.2625C3.55522 13.8733 2.80329 12.0285 2.81366 10.073C2.82404 8.11742 3.59796 6.28068 4.98711 4.9062C6.37628 3.52927 8.21867 2.77732 10.1767 2.78771C12.1322 2.79809 13.9689 3.57201 15.3434 4.96116C16.7203 6.35033 17.4723 8.19272 17.4619 10.1507C17.4532 11.7864 16.9128 13.3363 15.9246 14.6031L22.2287 20.9769C22.2472 20.9956 22.2619 21.0178 22.2718 21.0421C22.2817 21.0665 22.2868 21.0926 22.2866 21.1189C22.2865 21.1452 22.2812 21.1712 22.271 21.1954C22.2608 21.2197 22.2459 21.2416 22.2272 21.2601L21.1596 22.3189C21.1409 22.3374 21.1187 22.3521 21.0944 22.362C21.07 22.372 21.044 22.377 21.0177 22.3769C20.9914 22.3767 20.9653 22.3714 20.9411 22.3612C20.9169 22.351 20.8949 22.3361 20.8764 22.3174ZM13.9844 13.9995C15.0226 12.9698 15.5987 11.6008 15.6065 10.1409C15.6142 8.68092 15.0526 7.30585 14.0254 6.26522C12.9958 5.22703 11.6267 4.65091 10.1668 4.64316C8.70687 4.63541 7.32936 5.19695 6.29117 6.22417C5.25298 7.25383 4.67686 8.62286 4.66911 10.0828C4.66136 11.5427 5.22046 12.9202 6.25012 13.9584C7.27978 14.9966 8.64881 15.5728 10.1088 15.5805C11.5687 15.5883 12.9462 15.0267 13.9844 13.9995Z" fill="black"/>
</svg>
